Coordinates
version=1
nRows=5
nColumns=40
inDegrees=yes

Units are S.I. units (second, meters, Newtons, ...)
Angles are in degrees.

endheader
time	pelvis_tilt	pelvis_list	pelvis_rotation	pelvis_tx	pelvis_ty	pelvis_tz	hip_flexion_r	hip_adduction_r	hip_rotation_r	knee_angle_r	knee_angle_r_beta	ankle_angle_r	subtalar_angle_r	mtp_angle_r	hip_flexion_l	hip_adduction_l	hip_rotation_l	knee_angle_l	knee_angle_l_beta	ankle_angle_l	subtalar_angle_l	mtp_angle_l	lumbar_extension	lumbar_bending	lumbar_rotation	arm_flex_r	arm_add_r	arm_rot_r	elbow_flex_r	pro_sup_r	wrist_flex_r	wrist_dev_r	arm_flex_l	arm_add_l	arm_rot_l	elbow_flex_l	pro_sup_l	wrist_flex_l	wrist_dev_l
      0.93000000	     -6.33378716	      4.94832267	      8.69211439	      1.43250598	      0.91748473	      0.04141803	     -3.93701319	    -15.21112286	    -27.35322783	    -70.15934799	     -1.22451162	     -4.45359101	    -18.69588384	     22.04403978	     32.25270399	    -11.01003159	      5.13441363	    -36.30161535	     -0.63358271	      1.47628727	      9.20487334	    -12.71295946	     -0.58887455	    -11.74780363	     -0.23275716	     -9.98306484	    -21.53350735	      4.88923033	    116.34691121	     89.95437384	      0.00000000	      0.00000000	    -18.02495310	     21.49684789	     -6.24699088	    110.76936403	     89.95437384	      0.00000000	      0.00000000
      0.94000000	     -6.79156799	      5.12231052	     10.64870849	      1.46715258	      0.91245066	      0.03934175	      0.19419859	    -16.12610652	    -27.01194715	    -74.28979569	     -1.29660154	     -2.58546810	    -18.54253445	     20.45137057	     32.48850517	    -12.77290516	      1.90132591	    -41.09892225	     -0.71731151	      5.20038296	     11.24895211	    -12.37571137	     -1.17758979	    -12.49251767	     -4.03080540	    -10.53084243	    -21.13790545	      5.84870047	    111.59536688	     89.95437384	      0.00000000	      0.00000000	    -15.12914886	     18.80043881	     -6.95928270	    112.45286088	     89.95437384	      0.00000000	      0.00000000
      0.95000000	     -7.65011799	      5.22165858	     11.99691666	      1.50201545	      0.90888519	      0.03659636	      5.10872425	    -17.28837325	    -25.91929632	    -77.65525768	     -1.35533993	     -1.15042659	    -18.41644327	     19.43997249	     31.50610259	    -14.34446378	     -1.07442334	    -43.03251215	     -0.75105902	      8.88881943	     12.40354105	    -12.44177330	     -1.11491488	    -12.85963809	     -7.06839900	    -11.33478552	    -20.96960596	      6.58802257	    106.70614494	     89.95437384	      0.00000000	      0.00000000	    -12.05035685	     16.11685147	     -8.22798949	    113.95284364	     89.95437384	      0.00000000	      0.00000000
      0.96000000	    -10.50787427	      4.92504524	     12.80147281	      1.53447744	      0.90384187	      0.03472102	     13.32950831	    -18.46550929	    -23.53484162	    -81.07165206	     -1.41496726	     -0.14869109	    -18.29735578	     18.71116691	     32.42968109	    -15.36508315	     -2.89063295	    -43.71089115	     -0.76289897	     10.73958272	     14.63154535	    -11.84989259	      1.30785738	    -13.18335574	     -9.36898269	    -12.32911614	    -21.11192136	      7.38282004	    101.99037635	     89.95437384	      0.00000000	      0.00000000	     -8.99944115	     13.69318548	     -9.68129229	    115.63380732	     89.95437384	      0.00000000	      0.00000000
      0.97000000	    -12.07075143	      4.78006902	     12.92271188	      1.56892653	      0.90178434	      0.03398020	     19.94153122	    -19.11910862	    -20.78567650	    -82.98680550	     -1.44839299	      0.74659060	    -18.25852910	     18.32851186	     31.39162397	    -15.67390099	     -4.22325473	    -43.68034915	     -0.76236591	     12.89724980	     15.42594161	    -11.66557628	      2.49994906	    -13.28849322	    -10.95714036	    -13.68658663	    -21.52816022	      7.74751362	     98.60705149	     89.95437384	      0.00000000	      0.00000000	     -5.60571348	     11.70454887	    -11.42410738	    117.67839552	     89.95437384	      0.00000000	      0.00000000
